# xmcd CD database file
#
# Track frame offsets:
#	150
#	11762
#	26443
#	38173
#	48745
#	60553
#	76009
#	88402
#	104794
#	116050
#	130995
#	145471
#
# Disc length: 2105 seconds
#
# Revision: 0
# Processed by: cddbd v1.5.2PL0 Copyright (c) Steve Scherf et al.
# Submitted via: CDex 1.70beta2
#
DISCID=aa08370c
DTITLE=Various Artist - Yesterday - A Country Music Tribute to the Beatles
DYEAR=1900
DGENRE=Country
TTITLE0=Lorrie Morgan - Eight Days a Week
TTITLE1=Willie Nelson - Something
TTITLE2=Rosanne Cash - I Don't Want to Spoil the Party
TTITLE3=Waylon Jenings - You' ve Got to Hide Your Love Away
TTITLE4=Sweethearts of the Rodeo - I Feel Fine
TTITLE5=Merle Haggard - Yesterday
TTITLE6=Dolly Parton - Help!
TTITLE7=John Denver - Let It Be
TTITLE8=Collin Raye - Blackbird
TTITLE9=Ray Stevens - The Fool On the Hill
TTITLE10=Rosanne Cash - I'm Only Sleeping
TTITLE11=Chet Atkins - Michelle
EXTD=
EXTT0=
EXTT1=
EXTT2=
EXTT3=
EXTT4=
EXTT5=
EXTT6=
EXTT7=
EXTT8=
EXTT9=
EXTT10=
EXTT11=
PLAYORDER=
